<svg width="80" height="80" viewBox="0 0 80 80" fill="none" xmlns="http://www.w3.org/2000/svg">
<path d="M19.3549 41.9341C19.3592 42.2738 19.2955 42.6109 19.1673 42.9256C19.0391 43.2403 18.8492 43.5262 18.6087 43.7664C18.3682 44.0067 18.082 44.1964 17.7669 44.3244C17.4519 44.4524 17.1144 44.5161 16.7743 44.5118H2.58074C2.10132 44.5079 1.63197 44.374 1.22288 44.1242C0.813782 43.8745 0.480325 43.5184 0.258163 43.0941C0.0515747 42.6619 -0.0335383 42.1818 0.0119167 41.7051C0.0573716 41.2283 0.231685 40.7729 0.516227 40.3875C2.80005 37.3252 5.84755 34.9145 9.35493 33.3954C7.84781 32.0174 6.68986 30.3016 5.97638 28.3892C5.2629 26.4768 5.01429 24.4224 5.25101 22.3953C5.48772 20.3682 6.20301 18.4262 7.33798 16.7291C8.47295 15.0321 9.99516 13.6285 11.7793 12.634C13.5635 11.6394 15.5586 11.0823 17.6005 11.0084C19.6424 10.9346 21.6726 11.3462 23.5241 12.2093C25.3756 13.0723 26.9954 14.3623 28.2503 15.9729C29.5051 17.5835 30.3591 19.4688 30.742 21.4735C30.8374 21.9957 30.7712 22.5344 30.5522 23.018C30.3332 23.5016 29.9718 23.907 29.5162 24.1801C25.344 26.6513 22.1709 30.505 20.5485 35.0709C19.7487 37.2705 19.3446 39.594 19.3549 41.9341ZM79.4839 40.3875C77.2001 37.3252 74.1526 34.9145 70.6452 33.3954C72.1523 32.0174 73.3103 30.3016 74.0237 28.3892C74.7372 26.4768 74.9858 24.4224 74.7491 22.3953C74.5124 20.3682 73.7971 18.4262 72.6621 16.7291C71.5271 15.0321 70.0049 13.6285 68.2208 12.634C66.4366 11.6394 64.4415 11.0823 62.3996 11.0084C60.3577 10.9346 58.3275 11.3462 56.476 12.2093C54.6245 13.0723 53.0046 14.3623 51.7498 15.9729C50.4949 17.5835 49.6409 19.4688 49.2581 21.4735C49.1627 21.9957 49.2289 22.5344 49.4479 23.018C49.6669 23.5016 50.0283 23.907 50.4839 24.1801C54.6615 26.645 57.8365 30.5009 59.4516 35.0709C60.2514 37.2705 60.6555 39.594 60.6452 41.9341C60.6408 42.2738 60.7046 42.6109 60.8328 42.9256C60.961 43.2403 61.1509 43.5262 61.3914 43.7664C61.6319 44.0067 61.9181 44.1964 62.2331 44.3244C62.5482 44.4524 62.8857 44.5161 63.2258 44.5118H77.4194C77.8986 44.5118 78.3684 44.3785 78.7761 44.1268C79.1838 43.8751 79.5132 43.5151 79.7276 43.0869C79.9419 42.6587 80.0326 42.1794 79.9896 41.7026C79.9465 41.2258 79.7714 40.7704 79.4839 40.3875ZM49.4194 54.2104C51.9877 52.2441 53.8748 49.5235 54.8154 46.4308C55.756 43.338 55.7029 40.0287 54.6635 36.9676C53.6242 33.9066 51.6508 31.2478 49.0207 29.3647C46.3906 27.4816 43.236 26.4689 40 26.4689C36.7641 26.4689 33.6094 27.4816 30.9793 29.3647C28.3493 31.2478 26.3759 33.9066 25.3366 36.9676C24.2972 40.0287 24.2441 43.338 25.1847 46.4308C26.1253 49.5235 28.0124 52.2441 30.5807 54.2104C25.5631 56.4355 21.4952 60.3618 19.0968 65.2946C18.906 65.6866 18.8206 66.1214 18.8488 66.5564C18.8771 66.9914 19.0182 67.4115 19.2581 67.7756C19.4815 68.1491 19.7981 68.4583 20.1769 68.6729C20.5558 68.8875 20.9839 69.0002 21.4194 69H58.5807C59.0162 69.0002 59.4443 68.8875 59.8232 68.6729C60.202 68.4583 60.5186 68.1491 60.742 67.7756C60.9819 67.4115 61.123 66.9914 61.1513 66.5564C61.1795 66.1214 61.0941 65.6866 60.9033 65.2946C58.5049 60.3618 54.437 56.4355 49.4194 54.2104Z" fill="#EC213A"/>
<path d="M19.3549 41.9341C19.3592 42.2738 19.2955 42.6109 19.1673 42.9256C19.0391 43.2403 18.8492 43.5262 18.6087 43.7664C18.3682 44.0067 18.082 44.1964 17.7669 44.3244C17.4519 44.4524 17.1144 44.5161 16.7743 44.5118H2.58074C2.10132 44.5079 1.63197 44.3739 1.22288 44.1242C0.813784 43.8745 0.480329 43.5184 0.258167 43.0941C0.0515786 42.6619 -0.0335386 42.1818 0.0119163 41.705C0.0573713 41.2283 0.231689 40.7729 0.516231 40.3875C2.80006 37.3252 5.84756 34.9145 9.35493 33.3954C7.84781 32.0174 6.68986 30.3016 5.97638 28.3892C5.2629 26.4768 5.01429 24.4225 5.25101 22.3953C5.48773 20.3682 6.20301 18.4262 7.33798 16.7291C8.47295 15.0321 9.99517 13.6285 11.7793 12.634C13.5635 11.6394 15.5586 11.0823 17.6005 11.0084C19.6424 10.9346 21.6726 11.3462 23.5241 12.2093C25.3756 13.0723 26.9954 14.3623 28.2503 15.9729C29.5052 17.5835 30.3592 19.4688 30.742 21.4735C30.8374 21.9957 30.7712 22.5344 30.5522 23.018C30.3332 23.5016 29.9718 23.907 29.5162 24.1801C25.344 26.6514 22.1709 30.505 20.5485 35.0709C19.7487 37.2705 19.3446 39.594 19.3549 41.9341Z" fill="#EE6879"/>
</svg>
