<svg width="85" height="85" viewBox="0 0 85 85" fill="none" xmlns="http://www.w3.org/2000/svg">
<g clip-path="url(#clip0_402_332)">
<path d="M71.3661 30.25C72.2647 30.25 73 29.5328 73 28.6562V23.3438C73 22.4672 72.2647 21.75 71.3661 21.75H68.6429V15.375C68.6429 11.8555 65.7154 9 62.1071 9H18.5357C14.9275 9 12 11.8555 12 15.375V70.625C12 74.1445 14.9275 77 18.5357 77H62.1071C65.7154 77 68.6429 74.1445 68.6429 70.625V64.25H71.3661C72.2647 64.25 73 63.5328 73 62.6562V57.3438C73 56.4672 72.2647 55.75 71.3661 55.75H68.6429V47.25H71.3661C72.2647 47.25 73 46.5328 73 45.6562V40.3438C73 39.4672 72.2647 38.75 71.3661 38.75H68.6429V30.25H71.3661ZM40.3214 26C45.1279 26 49.0357 29.8117 49.0357 34.5C49.0357 39.1883 45.1279 43 40.3214 43C35.515 43 31.6071 39.1883 31.6071 34.5C31.6071 29.8117 35.515 26 40.3214 26ZM55.5714 57.45C55.5714 58.8578 54.2098 60 52.5214 60H28.1214C26.433 60 25.0714 58.8578 25.0714 57.45V54.9C25.0714 50.6766 29.1699 47.25 34.2214 47.25H34.9022C36.577 47.9273 38.4016 48.3125 40.3214 48.3125C42.2413 48.3125 44.0795 47.9273 45.7406 47.25H46.4214C51.473 47.25 55.5714 50.6766 55.5714 54.9V57.45Z" fill="#EC213A"/>
</g>
<g clip-path="url(#clip1_402_332)">
<path d="M71.3661 30.25C72.2647 30.25 73 29.5328 73 28.6562V23.3438C73 22.4672 72.2647 21.75 71.3661 21.75H68.6429V15.375C68.6429 11.8555 65.7154 9 62.1071 9H18.5357C14.9275 9 12 11.8555 12 15.375V70.625C12 74.1445 14.9275 77 18.5357 77H62.1071C65.7154 77 68.6429 74.1445 68.6429 70.625V64.25H71.3661C72.2647 64.25 73 63.5328 73 62.6562V57.3438C73 56.4672 72.2647 55.75 71.3661 55.75H68.6429V47.25H71.3661C72.2647 47.25 73 46.5328 73 45.6562V40.3438C73 39.4672 72.2647 38.75 71.3661 38.75H68.6429V30.25H71.3661ZM40.3214 26C45.1279 26 49.0357 29.8117 49.0357 34.5C49.0357 39.1883 45.1279 43 40.3214 43C35.515 43 31.6071 39.1883 31.6071 34.5C31.6071 29.8117 35.515 26 40.3214 26ZM55.5714 57.45C55.5714 58.8578 54.2098 60 52.5214 60H28.1214C26.433 60 25.0714 58.8578 25.0714 57.45V54.9C25.0714 50.6766 29.1699 47.25 34.2214 47.25H34.9022C36.577 47.9273 38.4016 48.3125 40.3214 48.3125C42.2413 48.3125 44.0795 47.9273 45.7406 47.25H46.4214C51.473 47.25 55.5714 50.6766 55.5714 54.9V57.45Z" fill="#EE6879"/>
</g>
<defs>
<clipPath id="clip0_402_332">
<rect width="61" height="51" fill="white" transform="translate(12 26)"/>
</clipPath>
<clipPath id="clip1_402_332">
<rect width="61" height="23" fill="white" transform="translate(12 9)"/>
</clipPath>
</defs>
</svg>
