<svg width="24" height="24" viewBox="0 0 24 24" fill="none" xmlns="http://www.w3.org/2000/svg">
<path fill-rule="evenodd" clip-rule="evenodd" d="M19.0027 11.3869C18.5581 12.8413 17.6662 14.1206 16.4522 15.0453C12.8341 14.4084 10.8793 14.3706 7.54778 15.0453C6.33381 14.1206 5.44187 12.8413 4.99728 11.3869C4.55269 9.93261 4.57778 8.3764 5.06905 6.93697C5.56031 5.49754 6.49305 4.24723 7.7362 3.36172C8.97936 2.47621 10.4705 2 12 2C13.5295 2 15.0206 2.47621 16.2638 3.36172C17.5069 4.24723 18.4397 5.49754 18.931 6.93697C19.4222 8.3764 19.4473 9.93261 19.0027 11.3869Z" fill="#EE6879"/>
<path d="M7.54778 15.0453C5.1761 16.0916 3.25334 17.938 2.11973 20.2575C2.02953 20.4419 1.98913 20.6464 2.0025 20.8509C2.01587 21.0554 2.08254 21.253 2.19596 21.4242C2.30153 21.5999 2.45118 21.7452 2.63024 21.8462C2.80931 21.9471 3.01167 22.0001 3.21754 22H20.7825C20.9883 22.0001 21.1907 21.9471 21.3698 21.8462C21.5488 21.7452 21.6985 21.5999 21.804 21.4242C21.9175 21.253 21.9841 21.0554 21.9975 20.8509C22.0109 20.6464 21.9705 20.4419 21.8803 20.2575C20.7467 17.938 18.8239 16.0916 16.4522 15.0453C12.8341 14.4084 10.8793 14.3706 7.54778 15.0453Z" fill="#EC213A"/>
</svg>
