<svg width="24" height="24" viewBox="0 0 24 24" fill="none" xmlns="http://www.w3.org/2000/svg">
<path d="M12.0258 5.3016C13.1714 5.3016 14.1034 4.3696 14.1034 3.22404C14.1034 2.07848 13.1714 1.14648 12.0258 1.14648C10.8802 1.14648 9.94824 2.07848 9.94824 3.22404C9.94824 4.36967 10.8802 5.3016 12.0258 5.3016Z" fill="#EE6879"/>
<path d="M8.7504 11.6747H15.3006C15.7272 11.6747 16.073 11.3288 16.073 10.9022V8.04623C16.073 7.25564 15.5649 6.5546 14.8137 6.30845L14.8102 6.30727L13.7113 6.12534C13.6177 6.0966 13.5178 6.14608 13.4842 6.23838L12.2374 9.65949C12.1654 9.85682 11.8863 9.85682 11.8144 9.65949L10.5675 6.23838C10.5403 6.16386 10.47 6.11719 10.3947 6.11719C10.3768 6.11719 9.24158 6.30712 9.24158 6.30712C8.4841 6.55949 7.97803 7.26171 7.97803 8.05571V10.9023C7.97803 11.3289 8.3238 11.6747 8.7504 11.6747Z" fill="#EE6879"/>
<path d="M21.4993 16.946C21.4952 16.9447 21.4911 16.9434 21.487 16.9421L20.8924 16.7597C20.7135 16.7049 20.5193 16.7483 20.3807 16.8734L19.0987 18.0325L17.8167 16.8734C17.6782 16.7482 17.4839 16.7048 17.3051 16.7597L16.7104 16.9421C16.7063 16.9434 16.7022 16.9447 16.6982 16.946C15.8004 17.2453 15.1973 18.0822 15.1973 19.0285V22.3231C15.1973 22.6163 15.4349 22.8539 15.7281 22.8539H22.4693C22.7625 22.8539 23.0001 22.6163 23.0001 22.3231V19.0285C23.0002 18.0822 22.397 17.2453 21.4993 16.946Z" fill="#EC213A"/>
<path d="M19.0985 16.3931C20.3204 16.3931 21.3145 15.3989 21.3145 14.177C21.3145 12.9551 20.3204 11.9609 19.0985 11.9609C17.8765 11.9609 16.8823 12.9551 16.8823 14.177C16.8823 15.3989 17.8765 16.3931 19.0985 16.3931Z" fill="#EC213A"/>
<path d="M7.30193 16.946C7.29785 16.9447 7.29378 16.9434 7.2897 16.9421L6.69504 16.7597C6.51622 16.7048 6.32193 16.7482 6.18341 16.8734L4.90133 18.0325L3.61933 16.8734C3.48082 16.7482 3.28652 16.7048 3.1077 16.7597C3.1077 16.7597 2.50496 16.9447 2.50081 16.946C1.60319 17.2453 1 18.0822 1 19.0285V22.3231C1 22.6163 1.23763 22.8539 1.53081 22.8539H8.272C8.56519 22.8539 8.80282 22.6163 8.80282 22.3231V19.0285C8.80282 18.0822 8.1997 17.2453 7.30193 16.946Z" fill="#EC213A"/>
<path d="M2.68506 14.177C2.68506 15.3989 3.67921 16.3931 4.90113 16.3931C6.12313 16.3931 7.11728 15.3989 7.11728 14.177C7.11728 12.9551 6.12313 11.9609 4.90113 11.9609C3.67921 11.9609 2.68506 12.9551 2.68506 14.177Z" fill="#EC213A"/>
<path d="M19.7042 8.33272C19.5227 8.27835 19.3182 8.31531 19.1654 8.44968C18.9294 8.65701 18.9062 9.01642 19.1136 9.25235L19.8911 10.1371C19.9991 10.2599 20.1547 10.3303 20.3182 10.3303C20.4818 10.3303 20.6375 10.2599 20.7454 10.1371L21.5229 9.25235C21.7302 9.01642 21.7071 8.65701 21.4711 8.44968C21.2951 8.29494 21.0503 8.26886 20.8513 8.36338C20.7356 7.12116 20.2516 5.95553 19.4496 5.04294C19.2422 4.80701 18.8829 4.78375 18.6469 4.99116C18.411 5.19849 18.3878 5.5579 18.5951 5.79383C19.2086 6.49183 19.5896 7.37931 19.7042 8.33272Z" fill="#EE6879"/>
<path d="M3.30579 10.137C3.41379 10.2598 3.56942 10.3302 3.73298 10.3302C3.89654 10.3302 4.05224 10.2598 4.16017 10.137L4.93765 9.25222C5.14498 9.01629 5.12179 8.65688 4.88587 8.44955C4.73298 8.31525 4.52854 8.27829 4.34698 8.33266C4.46165 7.37925 4.84261 6.49177 5.45602 5.79377C5.66335 5.55785 5.64017 5.19844 5.40424 4.9911C5.16824 4.78377 4.80891 4.80703 4.60157 5.04288C3.79965 5.95548 3.31565 7.12111 3.19987 8.36325C3.00076 8.26866 2.75609 8.29481 2.58002 8.44955C2.34409 8.65688 2.32091 9.01629 2.52824 9.25222L3.30579 10.137Z" fill="#EE6879"/>
<path d="M12.4534 6.15762C12.4054 6.1054 12.3353 6.0791 12.2644 6.0791H11.7355C11.6646 6.0791 11.5945 6.1054 11.5465 6.15762C11.4723 6.23851 11.4616 6.35532 11.5142 6.44666L11.797 6.87288L11.6646 7.9894L11.9252 8.68273C11.9506 8.75243 12.0492 8.75243 12.0746 8.68273L12.3352 7.9894L12.2028 6.87288L12.4856 6.44666C12.5383 6.35532 12.5276 6.23851 12.4534 6.15762Z" fill="#EE6879"/>
</svg>
