<svg width="85" height="85" viewBox="0 0 85 85" fill="none" xmlns="http://www.w3.org/2000/svg">
<path d="M33.75 38.873C34.1312 38.6495 34.4472 38.3302 34.6665 37.9469C34.8858 37.5636 35.0008 37.1295 35 36.688V14.2141C35.0035 13.8119 34.9097 13.4147 34.7265 13.0565C34.5433 12.6983 34.2761 12.3895 33.9478 12.1566C33.6194 11.9236 33.2396 11.7734 32.8406 11.7186C32.4417 11.6638 32.0353 11.7061 31.6563 11.8419C25.327 14.0939 19.8491 18.2447 15.9724 23.726C12.0958 29.2074 10.0098 35.7515 10 42.4626C10.0034 44.4512 10.1811 46.4356 10.5313 48.3932C10.6064 48.7843 10.7729 49.1521 11.0173 49.4667C11.2616 49.7813 11.5769 50.0338 11.9375 50.2036C12.2702 50.3603 12.6322 50.4454 13 50.4533C13.4396 50.4506 13.8708 50.3322 14.25 50.11L33.75 38.873ZM30 17.991V35.2522L15.0312 43.8984C15 43.399 15 42.9308 15 42.4626C15.0096 37.4011 16.4144 32.44 19.0603 28.1233C21.7063 23.8066 25.4912 20.301 30 17.991V17.991Z" fill="#EE6879"/>
<path d="M70.72 26.356C70.6877 26.3212 70.666 26.2779 70.6575 26.2312L70.5325 26.0751C67.6725 21.1839 63.5798 17.1262 58.6619 14.3059C53.7439 11.4856 48.1722 10.001 42.5013 10C41.8382 10 41.2023 10.2631 40.7335 10.7314C40.2647 11.1997 40.0013 11.8348 40.0013 12.4971V41.0265L15.2825 55.2912C14.9944 55.4502 14.741 55.6652 14.5373 55.9235C14.3336 56.1817 14.1837 56.4781 14.0963 56.7951C14.009 57.1121 13.986 57.4434 14.0287 57.7694C14.0714 58.0954 14.1789 58.4096 14.345 58.6935V58.7559L14.4388 58.912C18.0436 65.0757 23.5819 69.8807 30.1965 72.5834C36.8111 75.286 44.1332 75.7356 51.0294 73.8625C57.9256 71.9894 64.0114 67.898 68.3449 62.2217C72.6784 56.5454 75.0178 49.6007 75.0013 42.4623C75.0089 36.812 73.5327 31.2584 70.72 26.356Z" fill="#EC213A"/>
</svg>
